<?xml version="1.0" encoding="UTF-8" standalone="no"?>
<svg
   xmlns:dc="http://purl.org/dc/elements/1.1/"
   xmlns:cc="http://creativecommons.org/ns#"
   xmlns:rdf="http://www.w3.org/1999/02/22-rdf-syntax-ns#"
   xmlns:svg="http://www.w3.org/2000/svg"
   xmlns="http://www.w3.org/2000/svg"
   xmlns:xlink="http://www.w3.org/1999/xlink"
   xmlns:sodipodi="http://sodipodi.sourceforge.net/DTD/sodipodi-0.dtd"
   xmlns:inkscape="http://www.inkscape.org/namespaces/inkscape"
   id="svg1065"
   inkscape:version="1.0 (4035a4f, 2020-05-01)"
   sodipodi:docname="nuint.svg"
   viewBox="0 0 29700 21000"
   style="shape-rendering:geometricPrecision; text-rendering:geometricPrecision; image-rendering:optimizeQuality; fill-rule:evenodd; clip-rule:evenodd"
   version="1.1"
   height="210mm"
   width="297mm"
   xml:space="preserve"><metadata
   id="metadata1069"><rdf:RDF><cc:Work
       rdf:about=""><dc:format>image/svg+xml</dc:format><dc:type
         rdf:resource="http://purl.org/dc/dcmitype/StillImage" /></cc:Work></rdf:RDF></metadata><sodipodi:namedview
   inkscape:current-layer="svg1065"
   inkscape:window-maximized="0"
   inkscape:window-y="239"
   inkscape:window-x="35"
   inkscape:cy="398.44488"
   inkscape:cx="561.25984"
   inkscape:zoom="0.62716049"
   showgrid="false"
   id="namedview1067"
   inkscape:window-height="757"
   inkscape:window-width="1226"
   inkscape:pageshadow="2"
   inkscape:pageopacity="0"
   guidetolerance="10"
   gridtolerance="10"
   objecttolerance="10"
   borderopacity="1"
   bordercolor="#666666"
   pagecolor="#ffffff" />
 <defs
   id="defs874">
  <style
   id="style833"
   type="text/css">
   <![CDATA[
    .fil1 {fill:none;fill-rule:nonzero}
    .fil0 {fill:#373435;fill-rule:nonzero}
   ]]>
  </style>
     <clipPath
   id="id0">
      <path
   id="path835"
   d="M13897 16696c0,-1 0,0 0,0 0,0 0,0 0,0l0 0 0 0z" />
     </clipPath>
     <clipPath
   id="id1">
      <path
   id="path838"
   d="M13368 15785c0,0 0,0 0,0l0 0 0 0 0 0z" />
     </clipPath>
     <clipPath
   id="id2">
      <path
   id="path841"
   d="M13806 17196l0 0 0 0z" />
     </clipPath>
     <clipPath
   id="id3">
      <path
   id="path844"
   d="M13368 15785c-241,-360 -500,-678 -773,-946 0,0 0,0 0,0 273,268 532,586 773,946l0 0 0 0zm0 0l0 0 0 0z" />
     </clipPath>
     <clipPath
   id="id4">
      <path
   id="path847"
   d="M14951 13330c0,0 0,0 0,0 26,-42 101,-85 216,-127l0 0c-115,42 -190,84 -216,127l0 0 0 0zm0 0l0 0 0 0z" />
     </clipPath>
      <clipPath
   id="id5">
       <path
   id="path850"
   d="M12973 14580l0 0c0,0 0,0 0,0l0 0 0 0z" />
      </clipPath>
      <clipPath
   id="id6">
       <path
   id="path853"
   d="M12595 14838c0,0 0,0 0,0l0 0 0 0c0,0 0,0 0,0z" />
      </clipPath>
      <clipPath
   id="id7">
       <path
   id="path856"
   d="M14982 11463l0 0c79,-373 118,-762 113,-1160l0 0c5,398 -34,787 -113,1160l0 0zm0 0l0 0 0 0z" />
      </clipPath>
      <clipPath
   id="id8">
       <path
   id="path859"
   d="M14982 11464c0,0 0,0 0,0l0 0 0 0c0,0 0,0 0,0z" />
      </clipPath>
      <clipPath
   id="id9">
       <path
   id="path862"
   d="M14638 12515c-1,0 0,1 0,0 150,-333 266,-685 344,-1052 0,0 0,0 0,0 -78,367 -194,719 -344,1052z" />
      </clipPath>
       <clipPath
   id="id10">
        <path
   id="path865"
   d="M13677 11896l-46 0c7,0 15,0 23,0 8,0 15,0 23,0z" />
       </clipPath>
       <clipPath
   id="id11">
        <path
   id="path868"
   d="M13456 10660c0,0 0,0 0,0 70,-27 138,-65 204,-114 31,-23 59,-44 85,-62l0 0c-26,18 -54,39 -85,62 -66,49 -134,87 -204,114l0 0zm0 0l0 0 0 0z" />
       </clipPath>
       <clipPath
   id="id12">
        <path
   id="path871"
   d="M13745 10484l0 0c150,-103 238,-131 327,-131l0 0c-89,0 -177,28 -327,131z" />
       </clipPath>
 
  
  
  
  <sodipodi:namedview
   inkscape:document-rotation="0"
   pagecolor="#ffffff"
   bordercolor="#666666"
   borderopacity="1"
   objecttolerance="10"
   gridtolerance="10"
   guidetolerance="10"
   inkscape:pageopacity="0"
   inkscape:pageshadow="2"
   inkscape:window-width="1355"
   inkscape:window-height="798"
   id="namedview835"
   showgrid="false"
   inkscape:zoom="0.36844528"
   inkscape:cx="129.50342"
   inkscape:cy="699.59718"
   inkscape:window-x="1800"
   inkscape:window-y="40"
   inkscape:window-maximized="0"
   inkscape:current-layer="g841"
   inkscape:pagecheckerboard="true"
   showguides="true"
   inkscape:guide-bbox="true">
   <sodipodi:guide
   position="968.79265,618.58025"
   orientation="1,0"
   id="guide46990" />
  </sodipodi:namedview>
  
  
  
  
  
  
  
  
  
  
  
  
  
  
  
  
  
  
  
  
  
  
  
  
  
  
  
  
  
  
  
  
  
  
  
  
  
  
  
  
  
  
  
  
  
  
  
  
  
  
  
  
 </defs>
 <path
   style="fill:#b3b3b3"
   class="fil0"
   d="M 4242,11479 H 5601 V 8209 h 14 l 1668,3270 H 8643 V 4817 H 7283 v 2990 h -13 L 5702,4817 H 4242 Z m 7139,121 c 291,0 575,-55 835,-166 -56,-232 -183,-464 -283,-649 -131,-241 -232,-425 -162,-600 94,-236 368,-260 1014,-3 73,30 197,76 352,107 51,10 104,18 160,24 151,-358 238,-791 238,-1301 V 4817 h -1461 v 4167 c 0,626 -255,990 -612,990 -370,0 -653,-317 -653,-990 V 4817 H 9302 v 4242 c 0,1747 767,2541 2079,2541 z m 4320,-1408 V 4817 h -1507 v 5340 c 202,-32 420,-49 656,-49 251,0 482,19 694,55 54,9 106,18 157,29 z m 1797,1287 h 235 v -643 c -96,177 -206,390 -257,602 8,14 15,27 22,41 z m 235,-1466 V 8209 h 14 l 1669,3270 h 1359 V 4817 h -1359 v 2990 h -14 L 17834,4817 h -1460 v 5498 c 66,-5 129,-14 188,-26 148,-30 272,-77 347,-107 406,-161 665,-212 824,-169 z m 4865,1466 h 1521 V 6434 h 1339 V 4817 h -4199 v 1617 h 1339 z"
   id="path877" /><path
   id="path46964"
   class="fil1"
   d="m 18786,16706 c 81,-95 34,-257 33,-402 0,-961 -725,-1976 -964,-2284 29,-330 60,-1205 -341,-1695 -22,-164 -92,-497 -301,-843 135,-843 1135,-1605 -212,-1068 -167,67 -554,207 -961,132 -320,-115 -711,-188 -1190,-188 -476,0 -865,72 -1184,186 -412,80 -805,-63 -973,-130 -1352,-539 -341,230 -211,1077 -205,343 -274,671 -296,834 -401,490 -370,1365 -341,1695 -231,297 -911,1249 -961,2178 -2,36 12,499 12,534"
   inkscape:export-ydpi="131.584"
   inkscape:export-xdpi="131.584"
   inkscape:export-filename="/Users/bento/Downloads/nuinte-logo.png"
   sodipodi:nodetypes="ccccccccccccccccccccccccccccccccccccccccccccccccccccccccccccccccccccccccccccccccccccccccccccccccccccccccccccccccccccccscccccccccccccccccccccccccccccccccccccccscccccccccccscccccccccccccccccccccccccccccccccccccccccccccccccccccccccccccccccccccccccccccccccccccccccccccccccccccccccccccccccccccccccccccccccccccccssccccccccccccsccccccccccccccccccccccccccccccccsscccccccccccccccccccccccccccccccccccccccccccccccccccccccccccccccccccccccsccccccccccccccccccccscssccccccccccccccccccccccccccccccccccccccccccccccccscccccccccscccccccccccccccccccccccccsccccccccscccccc" /><g
   style="fill:#b3b3b3"
   id="g843"
   inkscape:export-ydpi="131.584"
   inkscape:export-xdpi="131.584"
   inkscape:export-filename="/Users/bento/Downloads/nuinte-logo.png">
   <polygon
   style="fill:#b3b3b3"
   id="path845"
   class="fil0"
   points="14853,1149 12506,2129 3904,2129 2879,2129 2879,3191 2879,5488 3904,4676 3904,3191 12902,3191 14847,2373 16704,3191 25796,3191 25796,4676 26821,5488 26821,3191 26821,2129 25796,2129 17141,2129 " />
  </g><g
   style="fill:#b3b3b3"
   id="g46616"
   inkscape:export-ydpi="131.584"
   inkscape:export-xdpi="131.584"
   inkscape:export-filename="/Users/bento/Downloads/nuinte-logo.png">
   <g
   style="fill:#b3b3b3"
   id="g46612">
    <g
   style="fill:#b3b3b3"
   clip-path="url(#id0)"
   id="g885">
     <image
   xlink:href="nuinte-logo_Images%5Cnuinte-logo_ImgID1.png"
   height="1151"
   width="1151"
   y="15648"
   x="13809"
   id="image46610"
   style="fill:#b3b3b3" />
    </g>
   </g>
  </g><g
   style="fill:#b3b3b3"
   id="g46648"
   inkscape:export-ydpi="131.584"
   inkscape:export-xdpi="131.584"
   inkscape:export-filename="/Users/bento/Downloads/nuinte-logo.png">
   <g
   style="fill:#b3b3b3"
   id="g46644">
    <g
   style="fill:#b3b3b3"
   clip-path="url(#id1)"
   id="g890">
     <image
   xlink:href="nuinte-logo_Images%5Cnuinte-logo_ImgID2.png"
   height="1307"
   width="1151"
   y="14562"
   x="13258"
   id="image46642"
   style="fill:#b3b3b3" />
    </g>
   </g>
  </g><g
   style="fill:#b3b3b3"
   id="g46656"
   inkscape:export-ydpi="131.584"
   inkscape:export-xdpi="131.584"
   inkscape:export-filename="/Users/bento/Downloads/nuinte-logo.png">
   <g
   style="fill:#b3b3b3"
   id="g46652">
    <g
   style="fill:#b3b3b3"
   clip-path="url(#id2)"
   id="g895">
     <image
   xlink:href="nuinte-logo_Images%5Cnuinte-logo_ImgID3.png"
   height="1150"
   width="1151"
   y="16142"
   x="13705"
   id="image46650"
   style="fill:#b3b3b3" />
    </g>
   </g>
  </g><g
   style="fill:#b3b3b3"
   id="g46664"
   inkscape:export-ydpi="131.584"
   inkscape:export-xdpi="131.584"
   inkscape:export-filename="/Users/bento/Downloads/nuinte-logo.png">
   <g
   style="fill:#b3b3b3"
   id="g46660">
    <g
   style="fill:#b3b3b3"
   clip-path="url(#id3)"
   id="g900">
     <image
   xlink:href="nuinte-logo_Images%5Cnuinte-logo_ImgID4.png"
   height="47046"
   width="33646"
   y="-31177"
   x="12489"
   id="image46658"
   style="fill:#b3b3b3" />
    </g>
   </g>
  </g><g
   style="fill:#b3b3b3"
   id="g46688"
   inkscape:export-ydpi="131.584"
   inkscape:export-xdpi="131.584"
   inkscape:export-filename="/Users/bento/Downloads/nuinte-logo.png">
   <g
   style="fill:#b3b3b3"
   id="g46684">
    <g
   style="fill:#b3b3b3"
   clip-path="url(#id4)"
   id="g905">
     <image
   xlink:href="nuinte-logo_Images%5Cnuinte-logo_ImgID5.png"
   height="4246"
   width="6170"
   y="9190"
   x="14853"
   id="image46682"
   style="fill:#b3b3b3" />
    </g>
   </g>
  </g><g
   style="fill:#b3b3b3"
   id="g46724"
   inkscape:export-ydpi="131.584"
   inkscape:export-xdpi="131.584"
   inkscape:export-filename="/Users/bento/Downloads/nuinte-logo.png">
   <g
   style="fill:#b3b3b3"
   id="g46720">
    <g
   style="fill:#b3b3b3"
   id="g46718">
     <g
   style="fill:#b3b3b3"
   clip-path="url(#id5)"
   id="g910">
      <image
   xlink:href="nuinte-logo_Images%5Cnuinte-logo_ImgID6.png"
   height="1151"
   width="1151"
   y="13502"
   x="12879"
   id="image46716"
   style="fill:#b3b3b3" />
     </g>
    </g>
   </g>
  </g><g
   style="fill:#b3b3b3"
   id="g46744"
   inkscape:export-ydpi="131.584"
   inkscape:export-xdpi="131.584"
   inkscape:export-filename="/Users/bento/Downloads/nuinte-logo.png">
   <g
   style="fill:#b3b3b3"
   id="g46740">
    <g
   style="fill:#b3b3b3"
   id="g46738">
     <g
   style="fill:#b3b3b3"
   clip-path="url(#id6)"
   id="g916">
      <image
   xlink:href="nuinte-logo_Images%5Cnuinte-logo_ImgID7.png"
   height="1151"
   width="1151"
   y="13777"
   x="12489"
   id="image46736"
   style="fill:#b3b3b3" />
     </g>
    </g>
   </g>
  </g><g
   style="fill:#b3b3b3"
   id="g46774"
   inkscape:export-ydpi="131.584"
   inkscape:export-xdpi="131.584"
   inkscape:export-filename="/Users/bento/Downloads/nuinte-logo.png">
   <g
   style="fill:#b3b3b3"
   id="g46770">
    <g
   style="fill:#b3b3b3"
   id="g46768">
     <g
   style="fill:#b3b3b3"
   clip-path="url(#id7)"
   id="g922">
      <image
   xlink:href="nuinte-logo_Images%5Cnuinte-logo_ImgID8.png"
   height="67236"
   width="3162"
   y="-55671"
   x="14910"
   id="image46766"
   style="fill:#b3b3b3" />
     </g>
    </g>
   </g>
  </g><g
   style="fill:#b3b3b3"
   id="g46784"
   inkscape:export-ydpi="131.584"
   inkscape:export-xdpi="131.584"
   inkscape:export-filename="/Users/bento/Downloads/nuinte-logo.png">
   <g
   style="fill:#b3b3b3"
   id="g46780">
    <g
   style="fill:#b3b3b3"
   id="g46778">
     <g
   style="fill:#b3b3b3"
   clip-path="url(#id8)"
   id="g928">
      <image
   xlink:href="nuinte-logo_Images%5Cnuinte-logo_ImgID9.png"
   height="1151"
   width="1307"
   y="10414"
   x="14910"
   id="image46776"
   style="fill:#b3b3b3" />
     </g>
    </g>
   </g>
  </g><g
   style="fill:#b3b3b3"
   id="g46794"
   inkscape:export-ydpi="131.584"
   inkscape:export-xdpi="131.584"
   inkscape:export-filename="/Users/bento/Downloads/nuinte-logo.png">
   <g
   style="fill:#b3b3b3"
   id="g46790">
    <g
   style="fill:#b3b3b3"
   id="g46788">
     <g
   style="fill:#b3b3b3"
   clip-path="url(#id9)"
   id="g934">
      <image
   xlink:href="nuinte-logo_Images%5Cnuinte-logo_ImgID10.png"
   height="56161"
   width="11569"
   y="-43552"
   x="14532"
   id="image46786"
   style="fill:#b3b3b3" />
     </g>
    </g>
   </g>
  </g><g
   style="fill:#b3b3b3"
   id="g46830"
   inkscape:export-ydpi="131.584"
   inkscape:export-xdpi="131.584"
   inkscape:export-filename="/Users/bento/Downloads/nuinte-logo.png">
   <g
   style="fill:#b3b3b3"
   id="g46826">
    <g
   style="fill:#b3b3b3"
   id="g46824">
     <g
   style="fill:#b3b3b3"
   id="g46822">
      <g
   style="fill:#b3b3b3"
   clip-path="url(#id10)"
   id="g940">
       <image
   xlink:href="nuinte-logo_Images%5Cnuinte-logo_ImgID11.png"
   height="1307"
   width="2032"
   y="10706"
   x="13533"
   id="image46820"
   style="fill:#b3b3b3" />
      </g>
     </g>
    </g>
   </g>
  </g><g
   style="fill:#b3b3b3"
   id="g46842"
   inkscape:export-ydpi="131.584"
   inkscape:export-xdpi="131.584"
   inkscape:export-filename="/Users/bento/Downloads/nuinte-logo.png">
   <g
   style="fill:#b3b3b3"
   id="g46838">
    <g
   style="fill:#b3b3b3"
   id="g46836">
     <g
   style="fill:#b3b3b3"
   id="g46834">
      <g
   style="fill:#b3b3b3"
   clip-path="url(#id11)"
   id="g947">
       <image
   xlink:href="nuinte-logo_Images%5Cnuinte-logo_ImgID12.png"
   height="4542"
   width="7652"
   y="6197"
   x="13372"
   id="image46832"
   style="fill:#b3b3b3" />
      </g>
     </g>
    </g>
   </g>
  </g><g
   style="fill:#b3b3b3"
   id="g46866"
   inkscape:export-ydpi="131.584"
   inkscape:export-xdpi="131.584"
   inkscape:export-filename="/Users/bento/Downloads/nuinte-logo.png">
   <g
   style="fill:#b3b3b3"
   id="g46862">
    <g
   style="fill:#b3b3b3"
   id="g46860">
     <g
   style="fill:#b3b3b3"
   id="g46858">
      <g
   style="fill:#b3b3b3"
   clip-path="url(#id12)"
   id="g954">
       <image
   xlink:href="nuinte-logo_Images%5Cnuinte-logo_ImgID13.png"
   height="3162"
   width="9728"
   y="7415"
   x="13648"
   id="image46856"
   style="fill:#b3b3b3" />
      </g>
     </g>
    </g>
   </g>
  </g><g
   id="g961">
   <path
   id="path46870"
   class="fil0"
   d="m 12341,10554 c -53,-45 -99,-90 -143,-124 -43,-35 -79,-64 -106,-82 -26,-19 -42,-29 -42,-29 0,0 18,6 49,18 30,13 74,31 122,61 47,31 103,67 158,111 54,43 111,91 169,136 56,47 114,92 172,128 57,36 112,69 162,90 50,21 94,36 125,42 16,5 29,7 37,9 l 13,3 h -13 c -9,1 -22,2 -38,2 -33,-1 -82,-4 -137,-20 -54,-16 -118,-39 -180,-75 -62,-36 -124,-80 -184,-126 -57,-48 -112,-98 -164,-144 z m 4490,351 c 19,-21 46,-53 81,-87 35,-34 74,-76 119,-117 46,-40 94,-84 143,-128 51,-41 103,-81 154,-117 50,-36 102,-62 147,-84 45,-22 85,-33 113,-41 28,-7 44,-10 44,-10 0,0 -14,8 -39,22 -25,13 -59,36 -99,62 -40,26 -84,62 -131,99 -48,37 -97,79 -145,122 -50,41 -101,82 -148,120 -47,39 -94,72 -133,101 -39,30 -74,51 -98,68 -24,15 -38,24 -38,24 0,0 11,-13 30,-34 z m -840,1747 c 43,-21 80,-54 107,-92 26,-38 47,-77 57,-114 10,-37 16,-70 16,-93 1,-12 0,-22 0,-28 v -10 l 4,9 c 2,6 6,15 9,27 6,23 14,59 10,102 -6,42 -17,93 -47,140 -29,47 -71,91 -124,121 -55,26 -115,37 -170,34 -55,-3 -104,-22 -142,-42 -38,-20 -63,-47 -79,-65 l -16,-23 -5,-8 8,5 c 5,4 12,10 22,16 19,13 50,27 86,40 36,13 81,17 127,17 46,0 95,-12 137,-36 z m -347,-149 6,-22 5,-9 8,5 17,13 19,17 17,20 12,24 9,24 4,21 2,9 -10,1 -23,-3 -27,-14 -24,-24 c -5,-10 -9,-21 -13,-31 z m -1682,168 c 36,-13 66,-27 85,-40 11,-6 18,-12 23,-16 l 8,-5 -5,8 -17,23 c -16,18 -41,45 -79,65 -37,20 -86,39 -141,42 -55,3 -116,-8 -170,-34 -53,-30 -96,-74 -125,-121 -29,-47 -41,-98 -46,-140 -5,-43 3,-79 9,-102 3,-12 8,-21 10,-27 l 4,-9 -1,10 c 0,6 -1,16 1,28 -1,23 5,56 15,93 10,37 32,76 58,114 27,38 64,71 107,92 42,24 90,36 137,36 46,0 90,-4 127,-17 z m -351,-190 6,-22 4,-9 8,5 18,13 19,17 17,20 12,24 8,24 5,21 1,9 -9,1 -23,-3 -27,-14 -24,-24 c -5,-10 -10,-21 -13,-31 z m -2145,5356 c -48,-97 -92,-189 -127,-268 -36,-79 -64,-145 -84,-191 l -10,-26 c -57,-342 -90,-693 -90,-1048 0,-131 16,-264 42,-396 0,162 5,349 21,536 20,250 57,498 94,682 18,92 35,168 48,221 12,53 20,83 20,83 0,0 -5,-31 -14,-84 -8,-54 -20,-131 -31,-224 -22,-185 -40,-433 -42,-681 -1,-166 6,-331 17,-478 1,11 2,22 3,33 20,226 56,526 107,824 51,297 116,592 173,810 27,110 52,201 70,264 37,135 25,81 6,-2 -13,-64 -33,-156 -53,-267 -43,-221 -89,-518 -121,-816 -17,-159 -30,-319 -39,-467 46,223 111,494 186,761 287,808 164,888 74,-18 -64,-290 -115,-580 -148,-812 l 19,30 c 23,40 47,78 69,114 22,36 44,70 64,100 40,62 76,113 100,148 25,35 39,55 39,55 0,0 -10,-22 -27,-62 -18,-38 -43,-94 -70,-162 -14,-34 -29,-71 -44,-110 -14,-39 -31,-80 -46,-123 -31,-86 -62,-178 -91,-271 -29,-92 -55,-185 -79,-272 -24,-88 -44,-170 -60,-240 -17,-70 -29,-129 -37,-169 l -4,-24 c 106,-244 233,-469 351,-656 -25,105 -50,223 -71,342 -32,183 -55,368 -67,506 -12,139 -16,231 -16,231 0,0 14,-91 40,-227 25,-137 66,-316 117,-493 6,-22 13,-44 19,-67 -2,68 -4,137 -4,205 -2,232 7,462 19,634 12,172 25,287 25,287 0,0 -3,-115 -1,-287 2,-173 12,-402 32,-630 9,-89 18,-179 29,-265 6,128 14,263 27,399 25,265 66,529 104,725 19,98 37,179 49,235 13,57 21,89 21,89 0,0 -5,-32 -14,-90 -9,-57 -21,-139 -32,-238 -25,-197 -46,-462 -52,-726 -5,-212 0,-422 10,-599 l 5,6 c 49,54 106,108 164,168 60,57 123,118 191,177 68,59 137,121 212,179 l 14,11 c -21,36 -47,82 -75,139 -71,142 -155,351 -220,609 -67,257 -114,564 -129,892 -7,164 -7,333 1,505 6,171 25,346 44,516 165,235 799,365 780,38 292,-14 -670,-390 -668,-558 1,-167 8,-331 23,-489 29,-315 89,-605 163,-844 24,-81 51,-156 77,-225 -3,13 -6,26 -9,40 -40,176 -74,383 -105,606 -28,222 -46,461 -55,700 -5,239 0,478 14,701 368,309 -62,290 48,-2 -6,-222 -1,-459 14,-695 18,-236 46,-471 82,-689 39,-218 80,-420 127,-591 11,-43 22,-84 32,-123 3,-10 6,-20 9,-30 -6,29 -13,60 -19,92 -29,138 -55,300 -79,473 -22,175 -40,361 -51,547 -9,187 -13,374 -9,548 5,175 13,338 26,477 6,70 13,133 19,189 52,376 32,306 14,-1 -4,-56 -7,-120 -9,-189 -7,-139 -6,-302 -2,-475 5,-174 18,-359 37,-543 20,-183 46,-366 77,-536 33,-170 67,-328 102,-462 9,-37 18,-73 27,-106 -3,25 -5,51 -7,76 -19,191 -15,381 -15,381 0,0 34,-187 89,-366 32,-110 72,-215 98,-281 19,12 38,25 57,37 20,12 40,24 60,35 39,24 79,47 117,69 19,12 38,23 57,34 20,10 39,20 58,30 38,19 75,39 111,57 37,18 71,38 106,54 35,15 69,30 102,45 65,28 123,56 177,76 54,20 101,38 140,52 77,29 121,45 121,45 0,0 -42,-22 -115,-60 -36,-19 -80,-42 -131,-68 -51,-26 -105,-62 -165,-97 -30,-19 -61,-37 -94,-57 -32,-19 -63,-43 -97,-65 -33,-23 -66,-46 -101,-70 -17,-11 -35,-23 -52,-36 -17,-13 -35,-26 -52,-39 -34,-27 -69,-54 -105,-81 -18,-14 -35,-27 -53,-41 -18,-15 -35,-30 -52,-45 -69,-59 -141,-117 -207,-182 -34,-32 -67,-63 -101,-95 -33,-32 -64,-65 -96,-98 -64,-64 -123,-131 -180,-195 -57,-64 -109,-129 -159,-190 -48,-62 -94,-120 -133,-176 -41,-55 -75,-107 -106,-153 -21,-31 -39,-59 -54,-85 127,-142 272,-273 431,-387 -132,49 -262,109 -388,179 -17,-203 -46,-739 94,-1167 -8,47 -15,95 -21,143 -5,92 -9,185 -9,272 4,87 11,168 20,237 13,69 27,126 37,165 14,39 22,61 22,61 0,0 2,-24 5,-64 1,-40 5,-97 13,-165 3,-67 10,-146 21,-230 6,-84 16,-174 27,-263 6,-84 12,-168 22,-247 5,55 11,109 19,161 29,138 63,264 104,368 11,26 21,51 31,74 11,23 22,45 32,65 10,20 19,39 28,57 9,17 18,33 26,47 35,54 54,86 54,86 0,0 -10,-36 -30,-97 -5,-15 -11,-32 -16,-50 -6,-19 -11,-39 -17,-60 -6,-21 -12,-44 -19,-68 -5,-24 -10,-50 -16,-76 -28,-105 -47,-230 -60,-363 -2,-17 -3,-35 -5,-52 24,32 48,64 74,95 84,104 180,196 256,258 38,32 71,56 94,72 23,17 37,27 37,27 0,0 -12,-12 -31,-33 -19,-21 -47,-51 -77,-89 -62,-74 -135,-180 -194,-292 -60,-112 -106,-229 -132,-318 -14,-44 -23,-82 -29,-108 l -3,-12 c 5,-127 19,-253 41,-370 25,-84 59,-178 105,-277 l 12,17 c 89,127 195,236 195,236 0,0 -63,-138 -103,-281 -11,-40 -21,-80 -29,-117 35,-60 74,-122 120,-182 l 199,204 -112,-313 c 72,-85 157,-167 255,-244 37,46 86,110 134,195 57,83 117,184 179,296 67,109 139,226 210,342 52,72 105,143 160,212 -18,-4 -36,-9 -55,-13 -64,-8 -132,-13 -198,-18 -66,2 -131,3 -191,0 -60,1 -116,0 -163,-8 -12,-1 -24,-2 -35,-3 -11,-1 -21,-3 -31,-5 -19,-3 -37,-6 -50,-11 -30,-6 -47,-9 -47,-9 0,0 13,12 34,33 12,11 27,21 45,33 l 29,19 c 11,5 22,11 34,17 49,22 108,38 172,53 20,3 40,5 61,7 -19,47 -31,98 -31,152 0,232 189,420 421,420 200,0 366,-141 408,-330 96,42 178,66 236,82 60,12 95,17 95,17 0,0 -30,-19 -79,-54 -51,-32 -123,-79 -198,-145 -39,-30 -79,-65 -117,-104 -18,-20 -36,-43 -55,-64 -18,-23 -36,-47 -54,-72 -76,-95 -149,-208 -220,-323 -80,-111 -159,-223 -234,-328 -82,-101 -163,-194 -237,-270 -71,-66 -138,-114 -188,-148 356,-268 881,-468 1655,-468 46,0 91,0 136,2 16,2 32,3 48,6 69,8 137,18 205,31 67,13 133,27 198,44 65,17 129,38 191,60 125,44 244,99 355,165 111,66 215,141 310,226 l 18,16 c -39,33 -80,70 -121,111 -55,56 -112,117 -167,180 -52,66 -103,133 -148,197 -45,64 -82,127 -114,181 -32,54 -53,102 -70,135 -15,33 -23,52 -23,52 0,0 12,-17 34,-46 21,-30 53,-71 89,-121 35,-51 82,-107 128,-169 47,-62 99,-126 152,-188 52,-64 106,-126 159,-183 40,-43 76,-84 110,-121 23,21 45,42 67,65 l -16,13 c -79,71 -166,158 -255,254 -82,99 -170,205 -258,312 -80,110 -160,219 -241,314 -19,24 -38,48 -57,71 -19,22 -38,44 -57,65 -38,39 -78,74 -118,104 -75,66 -147,114 -198,146 -49,35 -79,54 -79,54 0,0 35,-5 95,-18 57,-15 137,-38 231,-79 42,188 208,328 408,328 232,0 420,-188 420,-420 0,-54 -12,-104 -30,-151 22,-3 44,-5 66,-8 64,-15 123,-31 172,-53 12,-6 23,-12 34,-17 l 29,-19 c 18,-12 33,-22 44,-33 22,-21 34,-33 34,-33 0,0 -16,3 -46,9 -13,5 -31,8 -51,11 -9,2 -20,4 -31,5 -11,1 -22,2 -34,3 -47,8 -103,9 -163,8 -60,3 -125,2 -191,0 -66,5 -134,10 -198,18 -13,3 -25,6 -38,9 55,-62 109,-125 162,-189 80,-111 160,-223 235,-327 70,-108 137,-206 199,-286 l 7,-10 c 26,29 51,58 76,89 27,33 53,69 78,104 -10,19 -20,37 -29,52 -27,45 -49,74 -49,74 0,0 31,-17 76,-49 11,-8 24,-17 37,-28 l 2,2 c 36,53 71,108 103,164 33,57 65,113 94,172 l 1,3 c -38,92 -79,166 -79,166 0,0 51,-38 114,-94 16,34 31,68 47,103 26,60 50,121 71,182 12,31 23,62 32,92 10,30 20,64 26,88 l 16,59 32,30 13,12 -1,1 c -28,124 -78,288 -144,448 -66,159 -147,312 -216,423 -34,56 -64,101 -86,133 -22,31 -34,49 -34,49 0,0 15,-16 41,-44 26,-28 63,-68 105,-119 86,-101 191,-243 282,-396 11,-20 23,-39 34,-59 -6,26 -12,52 -19,77 -36,148 -86,282 -138,393 -48,114 -98,204 -136,266 -17,32 -33,56 -43,73 -11,17 -16,26 -16,26 0,0 7,-8 21,-21 14,-15 35,-35 59,-62 49,-55 115,-138 183,-246 65,-109 131,-244 184,-395 22,-70 40,-144 56,-220 0,77 -1,148 -3,210 1,67 1,122 1,162 2,39 3,62 3,62 0,0 9,-21 23,-58 13,-37 30,-91 49,-156 10,-43 20,-92 30,-143 6,19 13,38 19,57 60,312 84,630 71,946 -163,-66 -303,-107 -303,-107 0,0 175,139 323,297 43,44 84,90 120,132 -10,16 -21,32 -33,49 -32,45 -69,97 -111,151 -41,56 -90,113 -139,175 -52,60 -106,124 -166,187 -59,63 -120,130 -187,192 -32,32 -65,65 -99,96 -34,31 -69,62 -103,93 -68,64 -142,120 -213,178 -18,15 -36,29 -53,43 -19,14 -37,27 -55,40 -36,27 -72,53 -107,79 -18,13 -36,25 -53,38 -18,12 -36,23 -53,35 -36,23 -70,45 -104,67 -34,22 -66,44 -99,63 -33,19 -64,37 -95,54 -61,34 -116,68 -167,93 -51,25 -96,47 -133,65 -74,36 -116,57 -116,57 0,0 43,-17 120,-48 38,-15 84,-34 138,-55 53,-21 110,-51 175,-81 31,-15 65,-31 99,-47 35,-16 69,-37 104,-56 36,-19 73,-39 110,-60 19,-10 38,-20 57,-31 18,-11 37,-23 56,-35 37,-23 76,-47 114,-71 20,-12 39,-24 59,-36 19,-13 38,-27 57,-40 l 10,-7 c 25,60 73,184 111,314 56,179 89,366 89,366 0,0 5,-190 -14,-381 -2,-25 -5,-51 -8,-76 9,33 19,69 28,106 35,134 68,292 101,462 31,170 58,353 78,536 19,184 31,369 37,543 4,173 4,336 -2,475 -2,69 -6,133 -10,189 -3,57 -6,106 -10,146 -20,204 -8,103 6,1 6,-40 12,-89 18,-145 7,-57 14,-120 19,-190 14,-139 22,-302 27,-477 3,-174 0,-361 -9,-548 -12,-186 -29,-372 -52,-547 -24,-173 -50,-335 -79,-473 -6,-32 -12,-63 -18,-92 3,10 6,20 9,30 10,39 20,80 32,123 46,171 88,373 127,591 36,218 64,453 82,689 15,236 19,473 13,695 -317,584 27,123 48,2 15,-223 20,-462 14,-701 -8,-239 -27,-478 -55,-700 -23,-165 -47,-321 -75,-463 5,14 9,28 13,42 74,239 134,529 163,844 15,158 22,322 23,489 2,168 -9,336 -19,509 l -8,129 c -4,42 -7,85 -11,127 -135,-136 217,-134 119,12 6,-43 12,-86 18,-129 l 13,-128 c 19,-170 38,-345 44,-516 8,-172 8,-341 1,-505 -15,-328 -63,-635 -129,-892 -65,-258 -149,-467 -220,-609 -35,-72 -67,-126 -90,-164 l -2,-3 19,-16 c 73,-59 141,-122 206,-182 66,-60 127,-122 185,-180 56,-60 111,-115 157,-170 22,-23 41,-46 60,-68 15,194 23,448 17,702 -6,264 -27,529 -52,726 -11,99 -23,181 -32,238 -9,58 -14,90 -14,90 0,0 8,-32 20,-89 13,-56 31,-137 50,-235 38,-196 78,-460 104,-725 12,-136 21,-271 27,-399 10,86 20,176 29,265 20,228 30,457 32,630 2,172 -1,287 -1,287 0,0 13,-114 25,-287 12,-172 21,-402 19,-633 0,-54 -1,-108 -3,-162 27,86 54,176 80,271 7,31 16,62 24,94 12,54 23,105 31,151 9,46 17,88 23,122 -10,37 -20,75 -30,115 -24,87 -51,180 -80,272 -29,93 -60,185 -91,271 -15,43 -31,84 -46,123 -15,39 -30,76 -44,110 -27,68 -52,124 -69,162 -18,40 -28,62 -28,62 0,0 14,-20 39,-55 25,-35 60,-86 100,-148 20,-30 42,-64 64,-100 22,-36 46,-74 70,-114 47,-79 96,-165 143,-252 11,-21 22,-41 33,-62 2,30 3,59 5,89 l 3,31 c -4,31 -9,63 -13,97 -32,241 -87,561 -157,879 -71,317 -157,631 -230,865 12,92 236,-610 303,-847 13,-45 26,-91 38,-137 -4,34 -7,67 -13,101 101,394 274,827 669,384 3,-13 5,-27 8,-42 60,-358 96,-729 96,-1105 0,-961 -725,-1976 -964,-2284 29,-330 60,-1205 -341,-1695 -22,-164 -92,-497 -301,-843 135,-843 1135,-1605 -212,-1068 -167,67 -554,207 -961,132 -320,-115 -711,-188 -1190,-188 -476,0 -865,72 -1184,186 -412,80 -805,-63 -973,-130 -1352,-539 -341,230 -211,1077 -205,343 -274,671 -296,834 -401,490 -370,1365 -341,1695 -239,308 -964,1323 -964,2284 0,383 37,760 100,1124 z m 0,0 z"
   inkscape:export-ydpi="131.584"
   inkscape:export-xdpi="131.584"
   inkscape:export-filename="/Users/bento/Downloads/nuinte-logo.png"
   sodipodi:nodetypes="ccccccccccccccccccccccccccccccccccccccccccccccccccccccccccccccccccccccccccccccccccccccccccccccccccccccccccccccccccccccscccccccccccccccccccccccccccccccccccccccscccccccccccsccccccccccccccccccccccccccccccccccccccccccccccccccccccccccccccccccccccccccccccccccccccccccccccccccccccccccccccccccccccccccccccccccccccccccccssccccccccccccsccccccccccccccccccccccccccccccccsscccccccccccccccccccccccccccccccccccccccccccccccccccccccccccccccccccccccsccccccccccccccccccccscsscccccccccccccccccccccccccccccccccccccccccccccccccccccscccccccccscccccccccccccccccccccccccccsscccccscccccsc" />
  </g><g
   style="fill:#b3b3b3"
   id="g964">
   <path
   style="fill:#b3b3b3"
   id="path46882"
   class="fil0"
   d="m 14813,13044 c 0,0 150,33 150,241 0,207 -150,659 -150,659 0,0 -151,-452 -151,-659 0,-208 151,-241 151,-241 z m -271,851 c 11,17 23,28 29,37 l 10,12 -4,-15 c -2,-11 -7,-25 -10,-45 -10,-37 -17,-91 -15,-155 -2,-47 3,-101 12,-158 44,193 107,386 117,417 l 132,394 131,-394 c 12,-36 93,-284 134,-501 12,34 21,68 27,100 20,78 24,148 25,196 1,25 1,44 1,58 0,13 0,20 0,20 0,0 3,-7 7,-19 5,-13 11,-31 18,-55 12,-49 26,-120 26,-209 -3,-88 -24,-191 -62,-294 -6,-16 -14,-31 -21,-46 -12,-144 -83,-232 -154,-282 -24,-36 -47,-73 -68,-109 l -19,-34 c -3,-10 -7,-15 -10,-27 -3,-10 -6,-21 -8,-33 -2,-12 -4,-24 -6,-36 -18,-98 -24,-196 -29,-279 -8,-84 -14,-154 -18,-203 -7,-50 -11,-78 -11,-78 0,0 -6,28 -16,77 -8,48 -20,118 -32,202 -8,85 -17,183 -13,294 1,14 2,28 5,43 l 2,14 -1,1 c -24,60 -59,127 -100,200 -7,15 -14,31 -21,46 -28,37 -51,84 -64,141 -8,18 -16,37 -23,56 -27,89 -47,180 -56,268 -4,88 2,171 18,240 20,69 46,122 67,156 z m 0,0 z"
   inkscape:export-ydpi="131.584"
   inkscape:export-xdpi="131.584"
   inkscape:export-filename="/Users/bento/Downloads/nuinte-logo.png" />
  </g><path
   style="fill:#b3b3b3"
   id="path46884"
   class="fil0"
   d="m 14154,11580 c -4,-31 -7,-68 -14,-106 -8,-39 -16,-80 -24,-121 -11,-40 -22,-80 -33,-118 -10,-38 -25,-72 -35,-101 -10,-30 -23,-54 -30,-71 -8,-17 -13,-26 -13,-26 0,0 0,11 0,29 2,19 1,46 5,77 5,31 7,68 15,106 7,39 16,79 24,120 11,41 22,81 33,118 10,38 24,72 34,102 11,30 23,53 30,70 9,17 13,27 13,27 0,0 0,-11 0,-30 -1,-18 -1,-45 -5,-76 z"
   inkscape:export-ydpi="131.584"
   inkscape:export-xdpi="131.584"
   inkscape:export-filename="/Users/bento/Downloads/nuinte-logo.png" /><path
   style="fill:#b3b3b3"
   id="path46886"
   class="fil0"
   d="m 14507,11901 c -4,-21 -13,-41 -17,-58 -5,-17 -14,-31 -17,-41 l -9,-15 c 0,0 -2,6 -5,17 -1,10 -7,26 -8,43 -1,18 -5,39 -4,61 1,22 2,45 3,68 4,23 8,46 12,68 4,21 12,41 17,58 5,17 13,30 17,40 l 9,15 c 0,0 2,-6 5,-16 1,-11 6,-26 8,-44 1,-17 5,-38 4,-60 -1,-22 -2,-45 -3,-68 -4,-23 -8,-46 -12,-68 z"
   inkscape:export-ydpi="131.584"
   inkscape:export-xdpi="131.584"
   inkscape:export-filename="/Users/bento/Downloads/nuinte-logo.png" /><g
   style="fill:#b3b3b3"
   id="g969">
   <path
   style="fill:#b3b3b3"
   id="path46888"
   class="fil0"
   d="m 14369,11190 c -3,-27 -12,-51 -17,-73 -4,-21 -13,-38 -17,-51 -5,-12 -8,-19 -8,-19 0,0 -2,8 -5,20 -2,13 -7,32 -8,54 -1,21 -6,47 -5,74 1,27 2,56 3,85 4,29 7,57 11,84 4,27 12,52 17,73 5,21 13,39 17,51 5,12 8,19 8,19 0,0 2,-7 5,-20 2,-13 7,-31 8,-53 1,-22 6,-48 5,-75 -1,-27 -2,-56 -3,-85 -4,-28 -7,-57 -11,-84 z m 0,0 z"
   inkscape:export-ydpi="131.584"
   inkscape:export-xdpi="131.584"
   inkscape:export-filename="/Users/bento/Downloads/nuinte-logo.png" />
  </g><g
   style="fill:#b3b3b3"
   id="g972">
   <path
   style="fill:#b3b3b3"
   id="path46890"
   class="fil0"
   d="m 14692,11437 c 0,0 -2,8 -6,21 -3,13 -10,32 -13,55 -3,22 -9,48 -10,76 -2,28 -3,59 -5,88 2,31 3,61 5,89 1,28 7,54 10,77 3,22 10,41 13,54 4,13 6,20 6,20 0,0 3,-7 7,-20 3,-13 10,-32 13,-54 3,-23 9,-49 10,-77 2,-28 4,-58 5,-89 -1,-29 -3,-60 -4,-88 -2,-28 -8,-54 -11,-76 -3,-23 -10,-42 -13,-55 -4,-13 -7,-21 -7,-21 z m 0,0 z"
   inkscape:export-ydpi="131.584"
   inkscape:export-xdpi="131.584"
   inkscape:export-filename="/Users/bento/Downloads/nuinte-logo.png" />
  </g><g
   style="fill:#b3b3b3"
   id="g975">
   <path
   style="fill:#b3b3b3"
   id="path46892"
   class="fil0"
   d="m 14914,11463 c 3,15 5,24 5,24 0,0 3,-8 8,-23 4,-15 12,-37 16,-63 4,-26 12,-56 16,-89 3,-33 6,-68 10,-103 0,-35 1,-70 1,-103 1,-33 -4,-64 -6,-90 -1,-27 -7,-49 -9,-64 -3,-16 -5,-25 -5,-25 0,0 -3,9 -8,24 -4,15 -12,37 -17,63 -4,26 -12,56 -15,89 -3,33 -7,67 -10,102 0,36 -1,71 -1,103 -1,33 4,64 5,91 2,26 8,48 10,64 z m 0,0 z"
   inkscape:export-ydpi="131.584"
   inkscape:export-xdpi="131.584"
   inkscape:export-filename="/Users/bento/Downloads/nuinte-logo.png" />
  </g><g
   style="fill:#b3b3b3"
   id="g978">
   <path
   style="fill:#b3b3b3"
   id="path46894"
   class="fil0"
   d="m 14656,11102 5,15 8,-14 c 4,-9 12,-22 16,-39 4,-16 12,-34 15,-55 3,-20 7,-42 10,-64 1,-22 1,-44 1,-64 1,-21 -4,-41 -6,-57 -1,-17 -7,-31 -9,-41 l -5,-16 -8,15 c -4,9 -12,22 -16,38 -5,17 -13,35 -16,56 -3,20 -6,42 -9,63 -1,22 -1,45 -1,65 -1,21 4,40 6,57 1,17 7,31 9,41 z m 0,0 z"
   inkscape:export-ydpi="131.584"
   inkscape:export-xdpi="131.584"
   inkscape:export-filename="/Users/bento/Downloads/nuinte-logo.png" />
  </g><g
   style="fill:#b3b3b3"
   id="g981">
   <path
   style="fill:#b3b3b3"
   id="path46896"
   class="fil0"
   d="m 15003,12085 c 2,21 8,40 10,52 4,13 6,20 6,20 0,0 3,-7 8,-19 3,-13 11,-30 15,-52 3,-21 11,-46 13,-73 3,-27 6,-55 9,-84 -1,-29 -1,-58 -1,-85 0,-27 -6,-52 -8,-74 -2,-22 -8,-40 -10,-53 -4,-12 -6,-20 -6,-20 0,0 -3,7 -7,20 -4,12 -11,30 -15,51 -4,22 -12,47 -14,74 -3,26 -6,55 -8,84 0,29 0,57 1,84 0,28 5,53 7,75 z m 0,0 z"
   inkscape:export-ydpi="131.584"
   inkscape:export-xdpi="131.584"
   inkscape:export-filename="/Users/bento/Downloads/nuinte-logo.png" />
  </g><g
   style="fill:#b3b3b3"
   id="g984">
   <path
   style="fill:#b3b3b3"
   id="path46898"
   class="fil0"
   d="m 15207,11272 4,15 9,-13 c 5,-9 14,-21 20,-36 5,-16 15,-33 20,-53 5,-20 10,-41 15,-62 2,-21 5,-43 7,-63 2,-20 -1,-40 -1,-56 0,-17 -4,-31 -6,-41 l -4,-16 -9,14 c -4,9 -13,21 -19,36 -6,15 -16,33 -20,53 -5,19 -10,40 -16,61 -2,22 -4,43 -6,63 -3,21 0,40 0,57 1,16 5,31 6,41 z m 0,0 z"
   inkscape:export-ydpi="131.584"
   inkscape:export-xdpi="131.584"
   inkscape:export-filename="/Users/bento/Downloads/nuinte-logo.png" />
  </g><g
   style="fill:#b3b3b3"
   id="g987">
   <path
   style="fill:#b3b3b3"
   id="path46900"
   class="fil0"
   d="m 15445,11261 c 11,-20 26,-43 37,-70 11,-26 23,-54 35,-83 9,-29 18,-58 27,-86 8,-27 12,-55 17,-77 5,-23 5,-43 7,-57 0,-14 1,-22 1,-22 0,0 -5,7 -14,18 -7,11 -20,27 -31,47 -10,21 -26,44 -37,71 -11,26 -23,54 -35,83 -9,29 -18,58 -26,86 -9,27 -12,55 -17,77 -5,23 -6,43 -8,57 0,14 0,22 0,22 0,0 4,-7 13,-18 7,-11 20,-27 31,-48 z m 0,0 z"
   inkscape:export-ydpi="131.584"
   inkscape:export-xdpi="131.584"
   inkscape:export-filename="/Users/bento/Downloads/nuinte-logo.png" />
  </g><g
   style="fill:#b3b3b3"
   id="g990">
   <path
   style="fill:#b3b3b3"
   id="path46902"
   class="fil0"
   d="m 15790,11243 c 9,-9 22,-18 31,-30 9,-12 20,-25 30,-38 7,-14 15,-29 22,-42 7,-14 9,-29 13,-41 4,-12 4,-24 5,-32 l 1,-13 -12,6 -27,18 c -9,9 -22,17 -31,29 -9,12 -19,25 -30,38 -7,15 -14,29 -21,43 -8,14 -10,29 -14,41 -4,12 -4,24 -5,32 l -1,13 12,-6 z m 0,0 z"
   inkscape:export-ydpi="131.584"
   inkscape:export-xdpi="131.584"
   inkscape:export-filename="/Users/bento/Downloads/nuinte-logo.png" />
  </g><g
   style="fill:#b3b3b3"
   id="g993">
   <path
   style="fill:#b3b3b3"
   id="path46904"
   class="fil0"
   d="m 15623,11676 c 6,-7 18,-17 27,-30 9,-13 23,-27 32,-45 10,-18 20,-36 30,-55 8,-20 15,-40 22,-59 7,-18 9,-38 13,-54 4,-15 3,-30 4,-40 v -16 l -12,10 c -6,8 -18,17 -27,30 -10,14 -23,28 -33,46 -9,17 -19,36 -30,54 -7,20 -14,40 -21,59 -7,19 -9,38 -13,54 -4,16 -3,31 -4,40 v 17 z m 0,0 z"
   inkscape:export-ydpi="131.584"
   inkscape:export-xdpi="131.584"
   inkscape:export-filename="/Users/bento/Downloads/nuinte-logo.png" />
  </g><g
   style="fill:#b3b3b3"
   id="g996">
   <path
   style="fill:#b3b3b3"
   id="path46906"
   class="fil0"
   d="m 15254,11825 c -5,37 -5,72 -7,102 -2,29 0,55 0,72 1,18 2,28 2,28 0,0 4,-9 11,-26 6,-16 17,-39 25,-68 8,-28 20,-61 28,-97 8,-36 17,-74 25,-113 6,-39 11,-78 16,-115 6,-36 5,-71 8,-101 2,-29 0,-55 0,-72 -1,-18 -2,-28 -2,-28 0,0 -4,9 -12,25 -5,17 -16,40 -25,68 -8,29 -20,62 -28,98 -8,36 -16,74 -25,113 -5,39 -11,78 -16,114 z m 0,0 z"
   inkscape:export-ydpi="131.584"
   inkscape:export-xdpi="131.584"
   inkscape:export-filename="/Users/bento/Downloads/nuinte-logo.png" />
  </g><path
   style="fill:#b3b3b3"
   id="path46908"
   class="fil0"
   d="m 15332,12100 c -6,15 -6,30 -8,43 -2,13 0,25 -1,32 l 2,13 10,-7 24,-22 c 8,-10 20,-21 27,-35 8,-13 16,-27 24,-42 5,-16 11,-31 16,-46 5,-15 5,-30 7,-43 3,-12 1,-25 1,-32 l -1,-13 -11,7 -24,22 c -8,10 -19,21 -27,34 -8,14 -16,29 -24,43 -5,16 -10,31 -15,46 z"
   inkscape:export-ydpi="131.584"
   inkscape:export-xdpi="131.584"
   inkscape:export-filename="/Users/bento/Downloads/nuinte-logo.png" /><g
   style="fill:#b3b3b3"
   id="g1000">
   <path
   style="fill:#b3b3b3"
   id="path46910"
   class="fil0"
   d="m 14288,12067 c -7,-14 -13,-30 -20,-46 -10,-14 -19,-28 -28,-42 -9,-13 -22,-23 -30,-33 l -26,-21 -11,-8 -1,14 c 1,8 1,20 4,33 3,13 5,29 11,44 7,14 13,30 20,46 10,14 19,28 28,42 9,13 22,23 30,33 l 26,21 12,7 v -13 c -1,-8 0,-21 -4,-33 -3,-13 -5,-29 -11,-44 z m 0,0 z"
   inkscape:export-ydpi="131.584"
   inkscape:export-xdpi="131.584"
   inkscape:export-filename="/Users/bento/Downloads/nuinte-logo.png" />
  </g><g
   style="fill:#b3b3b3"
   id="g1003">
   <path
   style="fill:#b3b3b3"
   id="path46912"
   class="fil0"
   d="m 13676,11113 c 5,18 9,41 18,64 9,22 19,46 29,70 12,22 25,45 36,66 12,21 27,39 38,55 11,16 25,27 32,36 l 14,14 c 0,0 -1,-7 -2,-19 -2,-12 -3,-29 -9,-48 -5,-19 -9,-42 -19,-64 -9,-22 -18,-46 -28,-70 -12,-22 -25,-45 -37,-66 -11,-21 -27,-39 -37,-55 -12,-16 -25,-28 -32,-37 l -14,-13 c 0,0 1,7 2,19 2,11 3,29 9,48 z m 0,0 z"
   inkscape:export-ydpi="131.584"
   inkscape:export-xdpi="131.584"
   inkscape:export-filename="/Users/bento/Downloads/nuinte-logo.png" />
  </g><g
   style="fill:#b3b3b3"
   id="g1006">
   <path
   style="fill:#b3b3b3"
   id="path46914"
   class="fil0"
   d="m 12741,13730 c 10,7 22,15 33,26 26,14 53,36 79,59 29,20 57,45 83,71 29,22 57,47 81,73 26,24 51,48 68,72 12,10 22,20 30,30 l 21,25 c 14,15 22,23 22,23 0,0 1,-12 3,-31 1,-10 0,-22 -1,-36 -1,-14 -3,-29 -6,-46 -9,-33 -24,-69 -43,-108 -24,-36 -52,-71 -84,-105 -37,-27 -76,-51 -114,-71 -41,-14 -79,-24 -113,-29 -17,-1 -33,-1 -46,0 -14,1 -26,1 -36,3 -19,4 -30,7 -30,7 0,0 9,7 25,19 8,4 17,10 28,18 z m 0,0 z"
   inkscape:export-ydpi="131.584"
   inkscape:export-xdpi="131.584"
   inkscape:export-filename="/Users/bento/Downloads/nuinte-logo.png" />
  </g><g
   style="fill:#b3b3b3"
   id="g1009">
   <path
   style="fill:#b3b3b3"
   id="path46916"
   class="fil0"
   d="m 13631,14012 c -69,-46 -138,-84 -199,-111 -63,-23 -118,-35 -156,-41 -39,-3 -61,-3 -61,-3 0,0 20,9 53,29 32,17 78,44 126,84 50,35 105,82 161,137 58,51 118,110 181,170 67,54 136,109 208,154 74,40 148,70 214,87 67,14 123,16 162,14 19,-3 34,-5 44,-7 l 16,-3 -15,-4 c -10,-3 -25,-7 -42,-13 -36,-11 -85,-29 -138,-61 -55,-26 -115,-65 -173,-114 -61,-45 -123,-100 -184,-159 -65,-53 -131,-109 -197,-159 z m 0,0 z"
   inkscape:export-ydpi="131.584"
   inkscape:export-xdpi="131.584"
   inkscape:export-filename="/Users/bento/Downloads/nuinte-logo.png" />
  </g><g
   style="fill:#b3b3b3"
   id="g1012">
   <path
   style="fill:#b3b3b3"
   id="path46918"
   class="fil0"
   d="m 15378,14444 c 30,2 65,3 103,2 76,-4 164,-17 258,-33 92,-23 189,-54 284,-90 93,-44 182,-93 262,-144 77,-56 147,-111 202,-163 27,-27 50,-53 70,-76 21,-23 38,-43 52,-60 26,-36 40,-56 40,-56 0,0 -21,13 -58,36 -18,13 -40,27 -65,43 -25,17 -54,34 -86,52 -61,41 -135,82 -216,122 -79,44 -166,85 -254,120 -87,40 -177,74 -263,101 -85,31 -166,56 -237,72 -35,11 -68,19 -97,26 -29,8 -55,14 -76,18 -43,10 -67,16 -67,16 0,0 25,4 69,10 22,2 48,4 79,4 z m 0,0 z"
   inkscape:export-ydpi="131.584"
   inkscape:export-xdpi="131.584"
   inkscape:export-filename="/Users/bento/Downloads/nuinte-logo.png" />
  </g><g
   style="fill:#b3b3b3"
   id="g1015">
   <path
   style="fill:#b3b3b3"
   id="path46920"
   class="fil0"
   d="m 13222,13403 c 101,72 210,114 302,145 93,31 174,38 230,43 28,2 50,2 65,2 15,0 23,0 23,0 0,0 -8,-2 -22,-5 -15,-4 -36,-8 -63,-16 -54,-13 -128,-39 -214,-76 -85,-37 -178,-93 -270,-163 -92,-69 -179,-156 -250,-255 -76,-96 -136,-205 -179,-312 -42,-107 -76,-211 -93,-303 -16,-92 -29,-170 -31,-225 -3,-28 -3,-50 -4,-65 -1,-15 -1,-23 -1,-23 0,0 -1,8 -4,23 -2,15 -7,36 -10,64 -6,56 -14,137 -5,234 8,96 26,210 67,326 42,115 102,234 180,341 81,104 178,195 279,265 z m 0,0 z"
   inkscape:export-ydpi="131.584"
   inkscape:export-xdpi="131.584"
   inkscape:export-filename="/Users/bento/Downloads/nuinte-logo.png" />
  </g><g
   style="fill:#b3b3b3"
   id="g1018">
   <path
   style="fill:#b3b3b3"
   id="path46922"
   class="fil0"
   d="m 15829,13591 c 55,-5 137,-12 230,-43 92,-31 200,-73 301,-145 101,-70 199,-161 280,-265 78,-107 138,-226 179,-341 42,-116 59,-230 68,-326 8,-97 1,-178 -5,-234 -3,-28 -8,-49 -10,-64 -3,-15 -4,-23 -4,-23 0,0 -1,8 -1,23 -1,15 -1,37 -5,65 -2,55 -14,133 -31,225 -16,92 -51,196 -93,303 -43,107 -102,216 -178,312 -71,99 -158,186 -251,255 -91,70 -184,126 -270,163 -85,37 -160,63 -214,76 -26,8 -48,12 -62,16 -15,3 -22,5 -22,5 0,0 7,0 22,0 15,0 38,0 66,-2 z m 0,0 z"
   inkscape:export-ydpi="131.584"
   inkscape:export-xdpi="131.584"
   inkscape:export-filename="/Users/bento/Downloads/nuinte-logo.png" />
  </g><g
   style="fill:#b3b3b3"
   id="g1021">
   <path
   style="fill:#b3b3b3"
   id="path46924"
   class="fil0"
   d="m 14049,13744 c 7,30 13,66 25,102 12,37 25,76 40,114 17,37 36,74 54,108 18,34 39,63 57,89 17,25 35,44 46,58 13,13 20,21 20,21 0,0 -3,-10 -9,-27 -7,-17 -14,-42 -26,-69 -13,-28 -23,-62 -39,-96 -15,-34 -31,-71 -45,-109 -17,-36 -33,-73 -47,-107 -14,-35 -30,-67 -42,-95 -12,-28 -24,-50 -31,-66 -9,-17 -14,-26 -14,-26 0,0 1,11 2,29 2,18 3,44 9,74 z m 0,0 z"
   inkscape:export-ydpi="131.584"
   inkscape:export-xdpi="131.584"
   inkscape:export-filename="/Users/bento/Downloads/nuinte-logo.png" />
  </g><g
   style="fill:#b3b3b3"
   id="g1024">
   <path
   style="fill:#b3b3b3"
   id="path46926"
   class="fil0"
   d="m 15478,14106 c 13,-21 29,-45 40,-73 12,-28 24,-58 34,-88 8,-32 14,-63 19,-93 5,-30 5,-59 6,-83 1,-24 -3,-45 -4,-59 -3,-14 -4,-22 -4,-22 0,0 -4,8 -10,21 -4,13 -13,32 -20,54 -7,23 -18,48 -26,76 -7,28 -16,57 -26,87 -8,30 -16,59 -24,87 -9,28 -13,55 -20,78 -6,23 -8,43 -12,57 -2,14 -3,22 -3,22 0,0 5,-6 15,-17 9,-11 23,-26 35,-47 z m 0,0 z"
   inkscape:export-ydpi="131.584"
   inkscape:export-xdpi="131.584"
   inkscape:export-filename="/Users/bento/Downloads/nuinte-logo.png" />
  </g><g
   style="fill:#b3b3b3"
   id="g1027">
   <path
   style="fill:#b3b3b3"
   id="path46928"
   class="fil0"
   d="m 13950,14985 c -158,-73 -316,-139 -460,-228 -37,-22 -72,-46 -107,-70 -34,-25 -68,-52 -101,-79 -33,-27 -65,-56 -96,-86 -32,-29 -62,-60 -92,-92 24,36 49,72 75,107 27,35 55,68 85,101 29,32 61,63 93,93 33,30 67,59 102,85 35,28 72,53 108,77 37,24 75,47 113,70 75,45 153,85 229,126 76,41 151,82 226,124 74,42 147,86 218,133 l 106,71 c 35,24 69,49 104,74 34,25 68,51 101,78 34,26 66,53 99,80 l 52,42 50,-47 c 26,-26 59,-56 90,-82 32,-26 66,-52 99,-77 34,-24 69,-48 104,-71 36,-23 72,-45 109,-65 36,-21 73,-42 111,-61 37,-20 75,-38 114,-56 39,-18 76,-32 118,-50 40,-17 79,-33 120,-53 82,-39 160,-79 236,-124 38,-22 75,-46 112,-70 37,-24 74,-48 110,-73 36,-26 71,-52 105,-79 35,-27 70,-54 103,-82 67,-57 132,-116 192,-179 -71,50 -144,98 -218,143 -36,23 -73,46 -111,68 -37,22 -74,43 -112,64 -37,21 -76,41 -114,61 -38,19 -76,40 -115,57 -39,19 -77,37 -117,54 -39,18 -78,33 -117,49 -38,15 -81,29 -121,44 -39,15 -84,30 -124,47 -41,17 -82,35 -123,54 -40,19 -80,39 -120,60 -39,22 -77,45 -116,68 -37,24 -75,49 -112,75 -36,26 -72,53 -107,81 -19,15 -36,30 -54,45 -17,-13 -35,-27 -52,-40 -35,-27 -71,-53 -106,-79 -72,-51 -145,-101 -221,-147 -76,-45 -153,-88 -231,-128 -78,-41 -158,-77 -237,-113 z m 0,0 z"
   inkscape:export-ydpi="131.584"
   inkscape:export-xdpi="131.584"
   inkscape:export-filename="/Users/bento/Downloads/nuinte-logo.png" />
  </g><g
   style="fill:#b3b3b3"
   id="g1030">
   <path
   style="fill:#b3b3b3"
   id="path46930"
   class="fil0"
   d="m 13310,16785 116,78 118,76 c 40,25 80,48 120,72 40,24 81,47 122,69 41,23 81,47 123,68 l 125,64 127,61 c 42,20 85,39 128,58 43,19 86,37 129,55 l 132,50 c 43,18 88,33 133,48 l 133,45 24,8 24,-9 c 87,-34 171,-68 255,-104 84,-36 168,-71 251,-110 83,-39 165,-78 247,-120 40,-20 82,-40 122,-62 l 120,-65 120,-67 c 40,-22 79,-46 118,-70 38,-24 78,-47 116,-72 l 115,-75 111,-80 c 38,-26 74,-54 110,-82 35,-29 72,-56 106,-87 l 102,-91 -115,73 c -38,26 -78,47 -116,71 -39,23 -78,46 -118,68 l -118,65 -120,64 c -39,21 -81,40 -121,61 -80,40 -161,80 -243,119 l -246,112 c -82,37 -164,73 -248,108 -83,35 -165,71 -249,105 -75,31 -151,60 -227,89 l -106,-35 c -43,-14 -87,-28 -130,-45 l -128,-47 -128,-51 c -43,-17 -85,-34 -127,-53 l -127,-54 -125,-58 c -42,-19 -83,-39 -125,-59 -83,-39 -164,-82 -247,-123 l -123,-64 -121,-67 c -82,-44 -162,-90 -242,-136 -80,-47 -160,-94 -239,-143 69,62 142,121 216,178 73,57 149,111 226,164 z m 0,0 z"
   inkscape:export-ydpi="131.584"
   inkscape:export-xdpi="131.584"
   inkscape:export-filename="/Users/bento/Downloads/nuinte-logo.png" />
  </g><path
   style="fill:#b3b3b3"
   id="path46936"
   class="fil0"
   d="m 14646,16934 c -62,-25 -125,-47 -184,-70 -60,-23 -119,-43 -174,-62 -55,-20 -108,-38 -156,-54 -195,-64 -328,-98 -328,-98 0,0 119,69 303,159 46,23 96,47 149,71 53,25 109,52 167,77 59,26 119,54 181,79 68,29 137,58 206,87 l 7,2 205,-88 c 62,-27 121,-55 179,-82 117,-53 224,-105 315,-152 183,-92 301,-163 301,-163 0,0 -133,36 -326,103 -97,33 -210,73 -329,120 -59,23 -121,46 -183,72 l -163,66 v 0 c -57,-22 -114,-45 -170,-67 z"
   inkscape:export-ydpi="131.584"
   inkscape:export-xdpi="131.584"
   inkscape:export-filename="/Users/bento/Downloads/nuinte-logo.png" /><g
   style="fill:#b3b3b3"
   id="g1034">
   <path
   style="fill:#b3b3b3"
   id="path46942"
   class="fil0"
   d="m 16224,15530 c -77,59 -142,106 -188,138 -46,33 -72,52 -72,52 0,0 28,-16 78,-42 49,-28 119,-68 201,-120 82,-52 175,-116 274,-187 97,-73 198,-154 296,-238 97,-86 191,-175 276,-261 84,-89 160,-172 223,-246 62,-75 111,-138 145,-183 33,-46 52,-72 52,-72 0,0 -22,23 -61,64 -38,41 -93,100 -162,168 -66,70 -146,149 -234,231 -86,84 -181,170 -278,254 -96,85 -195,167 -289,242 -94,75 -183,144 -261,200 z m 0,0 z"
   inkscape:export-ydpi="131.584"
   inkscape:export-xdpi="131.584"
   inkscape:export-filename="/Users/bento/Downloads/nuinte-logo.png" />
  </g><g
   style="fill:#b3b3b3"
   id="g1037">
   <path
   style="fill:#b3b3b3"
   id="path46944"
   class="fil0"
   d="m 13687,15660 c -29,-19 -61,-42 -96,-67 -71,-48 -151,-108 -236,-174 -85,-64 -173,-136 -259,-211 -88,-73 -173,-150 -250,-224 -78,-73 -149,-143 -208,-205 -31,-30 -58,-59 -82,-84 -24,-25 -45,-48 -61,-66 -35,-37 -55,-58 -55,-58 0,0 17,24 45,65 15,21 33,45 55,73 21,28 45,59 73,93 55,66 122,141 196,220 77,77 161,156 247,232 89,74 181,144 268,208 90,60 174,116 249,159 37,22 72,41 103,58 31,16 58,31 80,42 46,22 71,34 71,34 0,0 -23,-16 -65,-44 -21,-14 -46,-31 -75,-51 z m 0,0 z"
   inkscape:export-ydpi="131.584"
   inkscape:export-xdpi="131.584"
   inkscape:export-filename="/Users/bento/Downloads/nuinte-logo.png" />
  </g><g
   style="fill:#b3b3b3"
   id="g1040">
   <path
   style="fill:#b3b3b3"
   id="path46946"
   class="fil0"
   d="m 14446,15616 c 53,34 96,63 127,83 31,20 49,31 49,31 0,0 -15,-14 -42,-40 -27,-25 -66,-60 -114,-101 -49,-40 -107,-86 -170,-133 -65,-46 -134,-94 -205,-140 -72,-43 -145,-85 -215,-124 -70,-35 -136,-68 -193,-95 -58,-25 -107,-45 -141,-59 -35,-12 -55,-20 -55,-20 0,0 18,11 49,31 32,18 78,45 131,78 54,32 117,70 184,111 67,40 138,84 208,129 71,44 142,89 207,132 66,42 128,82 180,117 z m 0,0 z"
   inkscape:export-ydpi="131.584"
   inkscape:export-xdpi="131.584"
   inkscape:export-filename="/Users/bento/Downloads/nuinte-logo.png" />
  </g><g
   style="fill:#b3b3b3"
   id="g1043">
   <path
   style="fill:#b3b3b3"
   id="path46948"
   class="fil0"
   d="m 16119,15055 c 0,0 -19,6 -51,18 -31,12 -76,30 -130,51 -53,23 -114,50 -181,78 -65,31 -135,64 -204,97 -68,36 -136,74 -198,112 -62,39 -117,79 -163,114 -45,37 -81,71 -105,94 -23,25 -37,39 -37,39 0,0 16,-11 44,-30 28,-19 68,-46 117,-75 49,-30 107,-64 170,-97 62,-35 130,-69 199,-103 68,-35 137,-70 200,-103 64,-35 123,-68 173,-96 50,-29 92,-54 121,-71 28,-18 45,-28 45,-28 z m 0,0 z"
   inkscape:export-ydpi="131.584"
   inkscape:export-xdpi="131.584"
   inkscape:export-filename="/Users/bento/Downloads/nuinte-logo.png" />
  </g><g
   style="fill:#b3b3b3"
   id="g1046">
   <path
   style="fill:#b3b3b3"
   id="path46950"
   class="fil0"
   d="m 16159,14602 c -39,27 -83,53 -127,77 -43,27 -88,51 -131,72 -42,22 -82,42 -117,57 -35,18 -64,31 -85,40 -21,9 -33,15 -33,15 0,0 13,-1 36,-4 23,-4 55,-10 93,-19 38,-10 82,-24 128,-41 45,-20 93,-42 139,-67 45,-28 89,-58 128,-87 38,-32 72,-62 100,-90 27,-28 48,-53 63,-71 13,-18 21,-29 21,-29 0,0 -10,8 -29,21 -18,13 -45,32 -77,53 -31,23 -68,48 -108,73 z m 0,0 z"
   inkscape:export-ydpi="131.584"
   inkscape:export-xdpi="131.584"
   inkscape:export-filename="/Users/bento/Downloads/nuinte-logo.png" />
  </g><g
   style="fill:#b3b3b3"
   id="g1049">
   <path
   style="fill:#b3b3b3"
   id="path46952"
   class="fil0"
   d="m 13341,14452 c 22,25 49,53 79,82 32,27 67,54 103,80 39,22 78,43 116,61 39,16 75,29 107,38 32,8 59,13 78,16 20,2 31,4 31,4 0,0 -10,-6 -27,-15 -17,-8 -41,-20 -70,-37 -29,-14 -61,-32 -96,-53 -34,-19 -71,-41 -106,-65 -36,-22 -71,-46 -103,-70 -33,-22 -64,-45 -88,-65 -27,-19 -48,-36 -63,-49 -15,-11 -24,-18 -24,-18 0,0 6,10 16,26 11,16 26,39 47,65 z m 0,0 z"
   inkscape:export-ydpi="131.584"
   inkscape:export-xdpi="131.584"
   inkscape:export-filename="/Users/bento/Downloads/nuinte-logo.png" />
  </g><g
   style="fill:#b3b3b3"
   id="g1052">
   <path
   style="fill:#b3b3b3"
   id="path46954"
   class="fil0"
   d="m 13109,14318 c -2,-14 -6,-34 -13,-57 -8,-23 -20,-49 -34,-76 -16,-26 -35,-52 -56,-77 -23,-23 -48,-44 -72,-63 -26,-16 -51,-30 -73,-40 -22,-9 -42,-15 -55,-19 -14,-2 -22,-4 -22,-4 0,0 6,5 17,15 10,8 26,21 42,37 18,14 38,32 57,52 21,19 42,40 61,63 21,21 40,43 57,66 19,21 35,42 47,61 15,18 26,34 33,46 9,11 14,18 14,18 0,0 -1,-8 -3,-22 z m 0,0 z"
   inkscape:export-ydpi="131.584"
   inkscape:export-xdpi="131.584"
   inkscape:export-filename="/Users/bento/Downloads/nuinte-logo.png" />
  </g><g
   style="fill:#b3b3b3"
   id="g1055">
   <path
   style="fill:#b3b3b3"
   id="path46956"
   class="fil0"
   d="m 13581,16141 c 22,11 46,22 71,34 25,11 52,24 81,37 29,12 60,22 92,34 129,50 285,92 455,123 171,28 355,41 540,40 184,-9 368,-33 537,-69 168,-41 321,-92 447,-148 31,-14 62,-27 90,-40 28,-15 54,-29 79,-42 25,-13 48,-25 69,-37 21,-11 40,-24 57,-34 67,-43 105,-68 105,-68 0,0 -40,20 -112,55 -18,9 -37,20 -59,29 -22,9 -46,19 -72,30 -25,11 -53,22 -81,34 -29,11 -60,22 -92,33 -126,50 -280,87 -445,124 -166,33 -345,53 -525,58 -180,5 -360,-5 -528,-29 -166,-28 -322,-56 -451,-99 -33,-9 -64,-19 -94,-28 -29,-10 -56,-20 -82,-29 -27,-10 -51,-18 -74,-26 -22,-8 -42,-18 -60,-26 -74,-31 -116,-48 -116,-48 0,0 40,22 110,61 17,9 36,21 58,31 z m 0,0 z"
   inkscape:export-ydpi="131.584"
   inkscape:export-xdpi="131.584"
   inkscape:export-filename="/Users/bento/Downloads/nuinte-logo.png" />
  </g><g
   style="fill:#b3b3b3"
   id="g1058">
   <path
   style="fill:#b3b3b3"
   id="path46962"
   class="fil0"
   d="m 13887,11724 c -22,-42 -46,-91 -78,-139 -32,-49 -68,-100 -106,-150 -40,-48 -82,-94 -122,-137 -41,-42 -83,-77 -118,-107 -36,-31 -68,-52 -90,-68 -23,-15 -36,-23 -36,-23 0,0 10,12 28,32 18,20 42,50 73,85 32,33 65,76 103,118 37,43 76,91 113,139 39,47 76,95 110,141 32,47 67,89 92,127 27,38 51,68 66,91 16,22 25,34 25,34 0,0 -5,-15 -14,-40 -11,-25 -24,-62 -46,-103 z m 0,0 z"
   inkscape:export-ydpi="131.584"
   inkscape:export-xdpi="131.584"
   inkscape:export-filename="/Users/bento/Downloads/nuinte-logo.png" />
  </g><g
   style="fill:#b3b3b3"
   id="g1061">
   <path
   style="fill:#b3b3b3"
   id="path46964_0"
   class="fil0"
   d="m 12341,10554 c -53,-45 -99,-90 -143,-124 -43,-35 -79,-64 -106,-82 -26,-19 -42,-29 -42,-29 0,0 18,6 49,18 30,13 74,31 122,61 47,31 103,67 158,111 54,43 111,91 169,136 56,47 114,92 172,128 57,36 112,69 162,90 50,21 94,36 125,42 16,5 29,7 37,9 l 13,3 h -13 c -9,1 -22,2 -38,2 -33,-1 -82,-4 -137,-20 -54,-16 -118,-39 -180,-75 -62,-36 -124,-80 -184,-126 -57,-48 -112,-98 -164,-144 z m 4490,351 c 19,-21 46,-53 81,-87 35,-34 74,-76 119,-117 46,-40 94,-84 143,-128 51,-41 103,-81 154,-117 50,-36 102,-62 147,-84 45,-22 85,-33 113,-41 28,-7 44,-10 44,-10 0,0 -14,8 -39,22 -25,13 -59,36 -99,62 -40,26 -84,62 -131,99 -48,37 -97,79 -145,122 -50,41 -101,82 -148,120 -47,39 -94,72 -133,101 -39,30 -74,51 -98,68 -24,15 -38,24 -38,24 0,0 11,-13 30,-34 z m -840,1747 c 43,-21 80,-54 107,-92 26,-38 47,-77 57,-114 10,-37 16,-70 16,-93 1,-12 0,-22 0,-28 v -10 l 4,9 c 2,6 6,15 9,27 6,23 14,59 10,102 -6,42 -17,93 -47,140 -29,47 -71,91 -124,121 -55,26 -115,37 -170,34 -55,-3 -104,-22 -142,-42 -38,-20 -63,-47 -79,-65 l -16,-23 -5,-8 8,5 c 5,4 12,10 22,16 19,13 50,27 86,40 36,13 81,17 127,17 46,0 95,-12 137,-36 z m -347,-149 6,-22 5,-9 8,5 17,13 19,17 17,20 12,24 9,24 4,21 2,9 -10,1 -23,-3 -27,-14 -24,-24 c -5,-10 -9,-21 -13,-31 z m -1682,168 c 36,-13 66,-27 85,-40 11,-6 18,-12 23,-16 l 8,-5 -5,8 -17,23 c -16,18 -41,45 -79,65 -37,20 -86,39 -141,42 -55,3 -116,-8 -170,-34 -53,-30 -96,-74 -125,-121 -29,-47 -41,-98 -46,-140 -5,-43 3,-79 9,-102 3,-12 8,-21 10,-27 l 4,-9 -1,10 c 0,6 -1,16 1,28 -1,23 5,56 15,93 10,37 32,76 58,114 27,38 64,71 107,92 42,24 90,36 137,36 46,0 90,-4 127,-17 z m -351,-190 6,-22 4,-9 8,5 18,13 19,17 17,20 12,24 8,24 5,21 1,9 -9,1 -23,-3 -27,-14 -24,-24 c -5,-10 -10,-21 -13,-31 z m -2145,5356 c -48,-97 -92,-189 -127,-268 -36,-79 -64,-145 -84,-191 l -10,-26 c -57,-342 -90,-693 -90,-1048 0,-131 16,-264 42,-396 0,162 5,349 21,536 20,250 57,498 94,682 18,92 35,168 48,221 12,53 20,83 20,83 0,0 -5,-31 -14,-84 -8,-54 -20,-131 -31,-224 -22,-185 -40,-433 -42,-681 -1,-166 6,-331 17,-478 1,11 2,22 3,33 20,226 56,526 107,824 51,297 116,592 173,810 27,110 52,201 70,264 37,135 25,81 6,-2 -13,-64 -33,-156 -53,-267 -43,-221 -89,-518 -121,-816 -17,-159 -30,-319 -39,-467 41,916 626,1527 626,1527 -27,-205 -296,-467 -366,-784 -64,-290 -115,-580 -148,-812 l 19,30 c 23,40 47,78 69,114 22,36 44,70 64,100 40,62 76,113 100,148 25,35 39,55 39,55 0,0 -10,-22 -27,-62 -18,-38 -43,-94 -70,-162 -14,-34 -29,-71 -44,-110 -14,-39 -31,-80 -46,-123 -31,-86 -62,-178 -91,-271 -29,-92 -55,-185 -79,-272 -24,-88 -44,-170 -60,-240 -17,-70 -29,-129 -37,-169 l -4,-24 c 106,-244 233,-469 351,-656 -25,105 -50,223 -71,342 -32,183 -55,368 -67,506 -12,139 -16,231 -16,231 0,0 14,-91 40,-227 25,-137 66,-316 117,-493 6,-22 13,-44 19,-67 -2,68 -4,137 -4,205 -2,232 7,462 19,634 12,172 25,287 25,287 0,0 -3,-115 -1,-287 2,-173 12,-402 32,-630 9,-89 18,-179 29,-265 6,128 14,263 27,399 25,265 66,529 104,725 19,98 37,179 49,235 13,57 21,89 21,89 0,0 -5,-32 -14,-90 -9,-57 -21,-139 -32,-238 -25,-197 -46,-462 -52,-726 -5,-212 0,-422 10,-599 l 5,6 c 49,54 106,108 164,168 60,57 123,118 191,177 68,59 137,121 212,179 l 14,11 c -21,36 -47,82 -75,139 -71,142 -155,351 -220,609 -67,257 -114,564 -129,892 -7,164 -7,333 1,505 6,171 25,346 44,516 -30,217 88,533 112,-520 1,-167 8,-331 23,-489 29,-315 89,-605 163,-844 24,-81 51,-156 77,-225 -3,13 -6,26 -9,40 -40,176 -74,383 -105,606 -28,222 -46,461 -55,700 1200,998 479,991 76,4 18,-236 46,-471 82,-689 39,-218 80,-420 127,-591 11,-43 22,-84 32,-123 3,-10 6,-20 9,-30 -6,29 -13,60 -19,92 -29,138 -55,300 -79,473 -22,175 -40,361 -51,547 -9,187 -12,374 -9,548 5,175 13,338 26,477 69,519 37,480 24,-2 -7,-139 -6,-301 -2,-474 5,-174 18,-359 37,-543 20,-183 46,-366 77,-536 33,-170 67,-328 102,-462 9,-37 18,-73 27,-106 -3,25 -5,51 -7,76 -19,191 -15,381 -15,381 0,0 34,-187 89,-366 32,-110 72,-215 98,-281 19,12 38,25 57,37 20,12 40,24 60,35 39,24 79,47 117,69 19,12 38,23 57,34 20,10 39,20 58,30 38,19 75,39 111,57 37,18 71,38 106,54 35,15 69,30 102,45 65,28 123,56 177,76 54,20 101,38 140,52 77,29 121,45 121,45 0,0 -42,-22 -115,-60 -36,-19 -80,-42 -131,-68 -51,-26 -105,-62 -165,-97 -30,-19 -61,-37 -94,-57 -32,-19 -63,-43 -97,-65 -33,-23 -66,-46 -101,-70 -17,-12 -35,-23 -52,-36 -17,-13 -35,-26 -52,-39 -34,-27 -69,-54 -105,-81 -18,-14 -35,-27 -53,-41 -18,-15 -35,-30 -52,-45 -69,-59 -141,-117 -207,-182 -34,-32 -67,-63 -101,-95 -33,-32 -64,-65 -96,-98 -64,-64 -123,-131 -180,-195 -57,-64 -109,-129 -159,-190 -48,-62 -94,-120 -133,-176 -41,-55 -75,-107 -106,-153 -21,-31 -39,-59 -54,-85 127,-142 272,-273 431,-387 -132,49 -262,109 -388,179 -8,-97 56,-2736 64,-752 4,87 11,168 20,237 13,69 27,126 37,165 14,39 22,61 22,61 0,0 2,-24 5,-64 1,-40 5,-97 13,-165 3,-67 10,-146 21,-230 6,-84 16,-174 27,-263 6,-84 12,-168 22,-247 5,55 11,109 19,161 29,138 63,264 104,368 11,26 21,51 31,74 11,23 22,45 32,65 10,20 19,39 28,57 9,17 18,32 26,47 35,54 54,86 54,86 0,0 -10,-36 -30,-97 -5,-15 -11,-32 -16,-50 -6,-19 -11,-39 -17,-60 -6,-21 -12,-44 -19,-68 -5,-24 -10,-50 -16,-76 -28,-105 -47,-230 -60,-363 -2,-17 -3,-35 -5,-52 24,32 48,64 74,95 84,104 180,196 256,258 38,32 71,56 94,72 23,17 37,27 37,27 0,0 -12,-12 -31,-33 -19,-21 -47,-51 -77,-89 -62,-74 -135,-180 -194,-292 -60,-112 -106,-229 -132,-318 -14,-44 -23,-82 -29,-108 l -3,-12 c 5,-127 19,-253 41,-370 25,-84 59,-178 105,-277 l 12,17 c 89,127 195,236 195,236 0,0 -63,-138 -103,-281 -11,-40 -21,-80 -29,-117 35,-60 74,-122 120,-182 l 199,204 -112,-313 c 72,-85 157,-167 255,-244 37,46 86,110 134,195 57,83 117,184 179,296 67,109 139,226 210,342 52,72 105,143 160,212 -18,-4 -36,-9 -55,-13 -64,-8 -132,-13 -198,-18 -66,2 -131,3 -191,0 -60,1 -116,0 -163,-8 -12,-1 -24,-2 -35,-3 -11,-1 -21,-3 -31,-5 -19,-3 -37,-6 -50,-11 -30,-6 -47,-9 -47,-9 0,0 13,12 34,33 12,11 27,21 45,33 l 29,19 c 11,5 22,11 34,17 49,22 108,38 172,53 20,3 40,5 61,7 -19,47 -31,98 -31,152 0,232 189,420 421,420 200,0 366,-141 408,-330 96,42 178,66 236,81 60,13 95,18 95,18 0,0 -30,-19 -79,-54 -51,-32 -123,-79 -198,-145 -39,-30 -79,-65 -117,-104 -18,-20 -36,-43 -55,-64 -18,-23 -36,-47 -54,-72 -76,-95 -149,-208 -220,-323 -80,-111 -159,-223 -234,-328 -82,-102 -163,-194 -237,-270 -71,-66 -138,-114 -188,-148 356,-268 881,-468 1655,-468 46,0 91,0 136,2 16,2 32,3 48,6 69,8 137,18 205,31 67,13 133,27 198,44 65,17 129,38 191,60 125,44 244,99 355,165 111,66 215,141 310,226 l 18,16 c -39,33 -80,70 -121,111 -55,56 -112,117 -167,180 -52,66 -103,133 -148,197 -45,64 -82,127 -114,181 -32,54 -53,102 -70,135 -15,33 -23,52 -23,52 0,0 12,-17 34,-46 21,-30 53,-71 89,-121 35,-51 82,-107 128,-169 47,-62 99,-126 152,-188 52,-64 106,-126 159,-183 40,-43 76,-84 110,-121 23,21 45,42 67,65 l -16,13 c -79,71 -166,158 -255,254 -82,99 -170,205 -258,312 -80,110 -160,219 -241,314 -19,24 -38,48 -57,71 -19,22 -38,44 -57,65 -38,39 -78,74 -118,104 -75,66 -147,114 -198,146 -49,35 -79,54 -79,54 0,0 35,-5 95,-18 57,-15 137,-38 231,-79 42,188 208,328 408,328 232,0 420,-188 420,-420 0,-54 -12,-104 -30,-151 22,-3 44,-5 66,-8 64,-15 123,-31 172,-53 12,-6 23,-12 34,-17 l 29,-19 c 18,-12 33,-22 44,-33 22,-21 34,-33 34,-33 0,0 -16,3 -46,9 -13,5 -31,8 -51,11 -9,2 -20,4 -31,5 -11,1 -22,2 -34,3 -47,8 -103,9 -163,8 -60,3 -125,2 -191,0 -66,5 -134,10 -198,18 -13,3 -25,6 -38,9 55,-62 109,-125 162,-189 80,-111 160,-223 235,-327 70,-108 137,-206 199,-286 l 7,-10 c 26,29 51,58 76,89 27,33 53,68 78,104 -10,19 -20,37 -29,52 -27,45 -49,74 -49,74 0,0 31,-17 76,-49 11,-8 24,-17 37,-28 l 2,2 c 36,53 71,108 103,164 33,57 65,113 94,172 l 1,3 c -38,92 -79,166 -79,166 0,0 51,-38 114,-94 16,34 31,68 47,103 26,60 50,121 71,182 12,31 23,62 32,92 10,30 20,64 26,88 l 16,59 32,30 13,12 -1,1 c -28,124 -78,288 -144,448 -66,159 -147,312 -216,423 -34,56 -64,101 -86,133 -22,31 -34,49 -34,49 0,0 15,-16 41,-44 26,-28 63,-68 105,-119 86,-101 191,-243 282,-396 11,-20 23,-39 34,-59 -6,26 -12,52 -19,77 -36,148 -86,282 -138,393 -48,114 -98,204 -136,266 -17,32 -33,56 -43,73 -11,17 -16,26 -16,26 0,0 7,-8 21,-21 14,-15 35,-35 59,-62 49,-55 115,-138 183,-246 65,-109 131,-244 184,-395 22,-71 40,-144 56,-220 0,77 -1,148 -3,210 1,67 1,122 1,162 2,39 3,62 3,62 0,0 9,-21 23,-58 13,-37 30,-91 49,-156 10,-43 20,-92 30,-143 6,19 13,38 19,57 60,312 84,630 71,946 -163,-66 -303,-107 -303,-107 0,0 175,138 323,297 43,44 84,90 120,132 -10,16 -21,32 -33,49 -32,45 -69,97 -111,151 -41,56 -90,113 -139,175 -52,60 -106,124 -166,187 -59,63 -120,130 -187,192 -32,32 -65,65 -99,96 -34,31 -69,62 -103,93 -68,64 -142,120 -213,178 -18,15 -36,29 -53,43 -19,14 -37,27 -55,40 -36,27 -72,53 -107,79 -18,13 -36,25 -53,38 -18,12 -36,23 -53,35 -36,23 -70,45 -104,67 -34,22 -66,44 -99,63 -33,19 -64,37 -95,54 -61,34 -116,68 -167,93 -51,25 -96,47 -133,65 -74,36 -116,57 -116,57 0,0 43,-17 120,-48 38,-15 84,-34 138,-55 53,-21 110,-51 175,-81 31,-15 65,-31 99,-47 35,-16 69,-37 104,-56 36,-19 73,-39 110,-60 19,-10 38,-20 57,-31 18,-11 37,-23 56,-35 37,-23 76,-47 114,-71 20,-12 39,-24 59,-36 19,-13 38,-27 57,-40 l 10,-7 c 25,60 73,184 111,314 56,179 89,366 89,366 0,0 5,-190 -14,-381 -2,-25 -5,-51 -8,-76 9,33 19,69 28,106 35,134 68,292 101,462 31,170 58,353 78,536 19,184 31,369 37,543 4,173 4,336 -2,475 -46,520 -15,482 23,1 14,-139 22,-302 27,-477 3,-174 0,-361 -9,-548 -12,-186 -29,-372 -52,-547 -24,-173 -50,-335 -79,-473 -6,-32 -12,-63 -18,-92 3,10 6,20 9,30 10,39 20,80 32,123 46,171 88,373 127,591 36,218 64,453 82,689 15,236 19,473 13,695 -74,346 12,235 48,2 15,-223 20,-462 14,-701 -8,-239 -27,-478 -55,-700 -23,-165 -47,-321 -75,-463 5,14 9,28 13,42 74,239 134,529 163,844 15,158 22,322 23,489 2,168 -9,336 -19,509 l -8,129 c -157,141 126,10 108,139 6,-43 12,-86 18,-129 l 13,-128 c 19,-170 38,-345 44,-516 8,-172 8,-341 1,-505 -15,-328 -63,-635 -129,-892 -65,-258 -149,-467 -220,-609 -35,-72 -67,-126 -90,-164 l -2,-3 19,-16 c 73,-59 141,-122 206,-182 66,-60 127,-122 185,-180 56,-60 111,-115 157,-170 22,-23 41,-46 60,-68 15,194 23,448 17,702 -6,264 -27,529 -52,726 -11,99 -23,181 -32,238 -9,58 -14,90 -14,90 0,0 8,-32 20,-89 13,-56 31,-137 50,-235 38,-196 78,-460 104,-725 12,-136 21,-271 27,-399 10,86 20,176 29,265 20,228 30,457 32,630 2,172 -1,287 -1,287 0,0 13,-114 25,-287 12,-172 21,-402 19,-633 0,-54 -1,-108 -3,-162 27,86 54,176 80,271 7,31 16,62 24,94 12,54 23,105 31,151 9,46 17,88 23,122 -10,37 -20,75 -30,115 -24,87 -51,180 -80,272 -29,93 -60,185 -91,271 -15,43 -31,84 -46,123 -15,39 -30,76 -44,110 -27,68 -52,124 -69,162 -18,40 -28,62 -28,62 0,0 14,-20 39,-55 25,-35 60,-86 100,-148 20,-30 42,-64 64,-100 22,-36 46,-74 70,-114 47,-79 96,-165 143,-252 11,-21 22,-41 33,-62 2,30 3,59 5,89 l 3,31 c -4,31 -9,63 -13,97 -32,241 -87,561 -157,879 -335,820 -399,651 73,18 13,-45 26,-91 38,-137 -4,34 -7,67 -13,101 -30,228 -71,460 -118,690 l -36,172 c -13,58 -132,-318 -145,-260 -10,371 1082,-28 1072,-1365 0,-961 -725,-1976 -964,-2284 29,-330 60,-1205 -341,-1695 -22,-164 -92,-497 -301,-843 135,-843 1135,-1605 -212,-1068 -167,67 -554,207 -961,132 -320,-115 -711,-188 -1190,-188 -476,0 -865,72 -1184,186 -412,80 -805,-63 -973,-130 -1352,-539 -341,230 -211,1077 -205,343 -274,671 -296,834 -401,490 -370,1365 -341,1695 -239,308 -964,1323 -964,2284 z m 0,0 z"
   inkscape:export-ydpi="131.584"
   inkscape:export-xdpi="131.584"
   inkscape:export-filename="/Users/bento/Downloads/nuinte-logo.png"
   sodipodi:nodetypes="ccccccccccccccccccccccccccccccccccccccccccccccccccccccccccccccccccccccccccccccccccccccccccccccccccccccccccccccccccccccscccccccccccccccccccccccccccccccccccccccscccccccccccscccccccccccccccccccccccccccccccccccccccccccccccccccccccccccccccccccccccccccccccccccccccccccccccccccccccccccccccccccccccccccccccccccccccssccccccccccccsccccccccccccccccccccccccccccccccsscccccccccccccccccccccccccccccccccccccccccccccccccccccccccccccccccccccccsccccccccccccccccccccscssccccccccccccccccccccccccccccccccccccccccccccccccscccccccccscccccccccccccccccccccccccsccccccccscccccc" />
  </g><polygon
   style="fill:#b3b3b3"
   id="path849"
   class="fil0"
   points="14850,17739 4067,14658 4067,13101 3057,13901 3057,14370 3057,15398 3057,15398 14850,18990 26643,15398 26643,15398 26643,14370 26643,13901 25633,13101 25633,14658 " />
</svg>
